<svg xmlns="http://www.w3.org/2000/svg" width="600" height="600" viewBox="0 0 200 200" overflow="hidden"><defs><radialGradient id="i" cx="100" cy="114" r="41" gradientUnits="userSpaceOnUse" class="svga-on-canvas-facehighlight-gradient-single-0"><stop stop-opacity=".5" stop-color="#ffe4d6" offset="0"/><stop stop-opacity="0" stop-color="#f0c7b1" offset=".9"/></radialGradient><radialGradient id="j" cx="100" cy="54" r="37" gradientUnits="userSpaceOnUse" class="svga-on-canvas-facehighlight-gradient-single-1"><stop stop-opacity=".5" stop-color="#ffe4d6" offset="0"/><stop stop-opacity="0" stop-color="#f0c7b1" offset=".9"/></radialGradient><radialGradient id="c" cx="125.903" cy="85.096" r="13.25" gradientTransform="matrix(-1.0996 .0423 .0635 .9207 206.549 .593)" gradientUnits="userSpaceOnUse" class="svga-on-canvas-eyesback-gradient-left-0"><stop stop-color="#fff" offset="0"/><stop stop-color="#fdfefe" offset=".544"/><stop stop-color="#f6f8f9" offset=".74"/><stop stop-color="#eaeff2" offset=".879"/><stop stop-color="#d9e3e8" offset=".992"/><stop stop-color="#d8e2e7" offset="1"/></radialGradient><radialGradient id="f" cx="125.541" cy="85.113" r="13.249" gradientTransform="matrix(1.0996 .0423 -.0635 .9207 -6.549 .593)" gradientUnits="userSpaceOnUse" class="svga-on-canvas-eyesback-gradient-right-0"><stop stop-color="#fff" offset="0"/><stop stop-color="#fdfefe" offset=".544"/><stop stop-color="#f6f8f9" offset=".74"/><stop stop-color="#eaeff2" offset=".879"/><stop stop-color="#d9e3e8" offset=".992"/><stop stop-color="#d8e2e7" offset="1"/></radialGradient><radialGradient id="d" cx="123.371" cy="81.442" fx="136.805" fy="80.36" r="17.038" gradientTransform="matrix(.9884 .1367 .1336 -.7354 -56.068 125.3)" gradientUnits="userSpaceOnUse" class="svga-on-canvas-eyesfront-gradient-left-3"><stop stop-color="#e1ac8f" offset="0"/><stop stop-opacity=".3" stop-color="#e1ac8f" offset=".7"/><stop stop-opacity="0" stop-color="#f0c7b1" offset="1"/></radialGradient><radialGradient id="e" cx="78.965" cy="81.143" r="26.237" gradientTransform="matrix(.7183 -.06 .0803 .6143 8.791 49.26)" gradientUnits="userSpaceOnUse" class="svga-on-canvas-eyesfront-gradient-left-4"><stop stop-opacity="0" offset=".95"/><stop stop-opacity=".2" offset="1"/></radialGradient><radialGradient id="g" cx="122.972" cy="81.425" fx="136.406" fy="80.344" r="17.037" gradientTransform="matrix(-.9884 .1367 -.1336 -.7354 255.271 125.342)" gradientUnits="userSpaceOnUse" class="svga-on-canvas-eyesfront-gradient-right-3"><stop stop-color="#e1ac8f" offset="0"/><stop stop-opacity=".3" stop-color="#e1ac8f" offset=".7"/><stop stop-opacity="0" stop-color="#f0c7b1" offset="1"/></radialGradient><radialGradient id="h" cx="79.515" cy="81.186" r="26.237" gradientTransform="matrix(-.7183 -.06 -.0803 .6143 191.208 49.267)" gradientUnits="userSpaceOnUse" class="svga-on-canvas-eyesfront-gradient-right-4"><stop stop-opacity="0" offset=".95"/><stop stop-opacity=".2" offset="1"/></radialGradient><linearGradient id="a" x1="100" y1="172" x2="100" y2="128" gradientUnits="userSpaceOnUse" class="svga-on-canvas-chinshadow-gradient-single-0"><stop stop-opacity=".8" stop-color="#e1ac8f" offset="0"/><stop stop-color="#c27b55" offset=".7"/></linearGradient><linearGradient id="b" x1="100" y1="144" x2="100" y2="141" gradientUnits="userSpaceOnUse" class="svga-on-canvas-mouth-gradient-single-0"><stop stop-color="#e8b9a0" offset=".1"/><stop stop-color="#e1ac8f" offset="1"/></linearGradient></defs><path d="M225 225H-25V-25h250v250z" fill="#ecf0f1"/><path d="M100.449 107.922h-.9v-.9h.9v.9z" fill="#a46c47"/><path d="M185.874 197.272c-1.976-4.271-7.375-10.6-13.374-12.35-7.415-2.162-24.153-4.777-30.36-6.23-4.975-1.167-14.995-10.165-18.507-13.185-.63-.54-1.146-1.655-1.158-2.484-.126-9.778 3.775-35.752 3.775-35.752h-52.5s3.9 25.973 3.773 35.752c-.01.829-.528 1.944-1.156 2.484-3.512 3.02-13.533 12.018-18.508 13.185-6.207 1.453-22.945 4.157-30.36 6.32-6 1.747-11.397 7.988-13.373 12.26-3.338 7.207-4.126 20.25-4.126 31.5h180c0-11.25-.79-24.293-4.125-31.5z" fill="#f0c7b1"/><path d="M153.24 183.124c21.907 3.188 31.127 7.838 34.014 45.65h2.745c0-11.25-.79-24.294-4.125-31.5-1.976-4.272-7.375-10.602-13.374-12.35-7.415-2.163-24.153-4.778-30.36-6.231-4.975-1.167-16.417-10.862-19.478-14.715 3.024 4.233 11.512 14.044 18.948 16.614 3.558 1.23 6.52 1.789 11.63 2.532zm-94.852-2.532c7.437-2.569 15.924-12.38 18.949-16.614-3.06 3.852-14.503 13.548-19.479 14.715-6.206 1.453-22.944 4.157-30.36 6.32-5.998 1.747-11.397 7.988-13.373 12.26-3.336 7.206-4.125 20.25-4.125 31.5h2.745c2.869-37.57 12.127-42.465 34.014-45.65 5.108-.742 8.072-1.302 11.63-2.531z" fill="#ffe4d6"/><path d="M96.08 195.33s-4.566-1.448-6.374-2.141c-9.405-3.608-39.956-5.946-39.956-5.946s32.179 1.277 39.28 2.5c-.413-4.29-2.716-18.003-2.716-18.003s4.634 15.134 5.768 18.952c.607 2.04 3.998 4.638 3.998 4.638zm9.72-1.208c-.08.066-.173.152-.272.242a2.07 2.07 0 00.271-.242zm-9.72 1.208s2.604 2.693 3.913 2.727c1.719.046 4.345-2.609 5.535-3.693-1.138.86-3.743 1.251-4.779 1.292-1.197.046-4.669-.326-4.669-.326zm18.916-6.767c-1.39.223-3.947.71-3.947.71l2.058-13.4c-.581 2.763-4.026 14.589-7.308 18.25 1.72-1.455 5.543-2.153 7.492-2.434 9.212-1.336 9.209-1.335 36.956-4.446 0 0-26.164-.14-35.25 1.32z" fill="#e1ac8f"/><path d="M185.874 197.272c-1.976-4.271-7.375-10.6-13.374-12.35-7.415-2.162-24.153-4.777-30.36-6.23-4.975-1.167-14.995-10.165-18.507-13.185-.63-.54-1.146-1.655-1.158-2.484-.126-9.778 3.775-35.752 3.775-35.752h-52.5s3.9 25.973 3.773 35.752c-.01.829-.528 1.944-1.156 2.484-3.512 3.02-13.533 12.018-18.508 13.185-6.207 1.453-22.945 4.157-30.36 6.32-6 1.747-11.397 7.988-13.373 12.26-3.338 7.207-4.126 20.25-4.126 31.5h180c0-11.25-.79-24.293-4.125-31.5z" fill="none" stroke="#c27b55" stroke-width="1.35"/><path d="M74.853 164.349c7.212 4.619 15.864 7.518 25.15 7.518 9.283 0 17.933-2.897 25.143-7.514-.541-.765-.911-1.767-.924-2.619-.091-7.111 1.683-21.616 2.956-31.035-15.597-3.146-38.76-3.146-54.355 0 1.273 9.419 3.047 23.924 2.955 31.034-.011.834-.386 1.847-.925 2.616z" fill="url(#a)" transform="matrix(.9 0 0 .9 9.999 17.472)"/><path d="M188.017 198.864c-9.43-18.25-27.588-15.664-44.971-20.56-.421 3.227-11.926 18.432-14.658 27.056-1.535-1.281-3.366-2.993-4.689-4.56-6.469-7.598-16.056-32.184-19.274-12.985.7-8.618 4.503-10.517 9.784-3.293 5.677 7.774 5.888 11.788 13.988 20.242 1.43-5.941 4.529-10.133 8.132-15.394 3.488-5.096 6.035-7.395 6.407-11.932-1.3-2.167-.989-3.137-3.09-4.541-13.19-8.921-3.773-17.973-15.729-20.129a156.997 156.997 0 01-.31 3.194c2.557 1.316 3.322 6.437-.615 10.187-6.256 6.867-16.308 7.209-18.929 17.75h-.006c-.834 3.129-1.502 7.918-1.819 10.726l-2.21 22.409-2.222-22.012c-1.803-16.523-4.16-18.14-11.865-23.245-5.106-3.384-13.449-8.49-10.725-14.262.31-.668.688-1.078 1.157-1.387-.135-1.32-.214-2.084-.319-3.31-9.87.42-8.352 14.384-15.827 19.52-1.96 1.347-2.958 2.592-3.661 4.617.478 5.653 13.053 18.428 15.25 27.809 8.177-8.633 8.24-12.405 13.95-20.213 4.919-6.719 8.935-6.03 9.78 3.063-.464-2.732-1.564-6.913-3.947-6.913-1.964 0-4.01 2.896-5.023 4.294-5.669 7.81-6.58 13.396-14.982 20.37-.581-1.748-1.264-3.503-2.077-5.136-3.33-6.727-12.347-20.3-13.372-21.615-3.986 1.12-10.06 2.363-13.71 2.97-23.854 3.97-33.1 11.672-36.617 47.727 87.482-.885 123.13-.5 188.29-.5-.815-8.023-2.416-22.825-6.091-29.947z" fill="#386e77"/><path d="M135.971 189.177c-3.115 4.548-5.58 8.37-7.117 13.159 1.77-9.881 12.992-19.237 11.777-25.145-.52-2.531-9.473-8.173-9.937-16.56 2.47 7.684 11.693 13.168 11.708 16.85.025 6.025-.155 2.527-6.431 11.696zm58.065 38.92c.313-7.814-2.315-23.025-5.57-29.338-9.431-18.25-28.407-15.922-45.79-20.817-.154.196.441 1.494.024 2.052 40.634 7.488 45.261 16.413 51.336 48.103zM60.23 172.34c4.992-4.138 6.489-8.145 7.634-11.71-2.565 14.652-6.4 9.11-9.198 16.448-1.6 4.197 10.803 15.663 12.48 25.257-2.198-3.758-4.554-8.382-7.67-12.93-2.424-3.544-3.968-6.784-6.37-9.51-1.145-6.042 1.22-5.977 3.124-7.555zm-3.125 7.555c-.417-.558-.805-1.083-.959-1.28-17.382 4.895-34.734 1.894-44.163 20.145-3.258 6.313-4.884 19.227-5.781 27.058 1.736-9.516 4.323-21.504 9.867-28.736 9.4-12.75 26.744-15.211 41.036-17.187z" fill="#4d7e86"/><path d="M117.862 171.725c-4.377 2.538-8.083 5.03-10.542 8.533 5.91.326 10.28 10.889 11.461 12.325-11.1-15.45-15.3-4.95-16.65 4.89.389-3.192.708-8.637 1.338-10.975.184-.93.381-1.818.589-2.6l.006.001c2.621-10.541 12.673-10.883 18.929-17.75 3.937-3.75 3.17-8.87.615-10.187.098-.908.217-2.116.31-3.194.656.12 1.241.263 1.784.422 8.063 7.093-2.34 16.073-7.84 18.535zm-36.795 0c4.378 2.538 9.731 5.546 12.183 8.745-4.318-.785-9.118 5.665-11.518 11.365 10.35-13.2 13.5-5.7 16.8 5.638-.388-3.19-1.372-8.636-2.002-10.974-.183-.93-.38-1.819-.588-2.6l-.006.001c-2.62-10.542-12.314-10.883-18.57-17.75-3.936-3.75-3.26-8.871-.702-10.187-.098-.908-.216-2.116-.31-3.194-.656.12-1.241.263-1.784.422-6.757 8.251 1.554 15.535 6.497 18.534z" fill="#265e68"/><path d="M123.287 164.463c.028-5.131-.143-2.284.376-8.091 2.002 1.074 2.257 5.48-.376 8.09zm-46.563-.485c-2.09-2.736-2.349-5.53-.312-7.641.487 4.552.24 4.003.312 7.64z" fill="#184f58"/><path d="M142.86 176.696c-.185-3.188-7.031-5.847-10.069-12.758-2.175-4.923-.11-10.56-9.058-11.467-.49 2.869-.925 9.174-.795 12.221-4.534 4.881-11.548 6.144-16.006 11.392-4.76 5.601-6.822 17.73-6.9 42.9l1.108-.721s1.235-23.836 1.244-23.907c2.775-23.784 11.6-18.166 20.681-28.136 4.069-3.9 3.097-9.065.65-10.317.106-1.008.205-2.006.292-3.015 7.697 1.414 5.498 5.944 7.906 11.478 3.2 7.356 9.267 8.963 9.659 12.53.62 5.653-2.753 8.053-6.136 12.99-5.321 7.704-6.552 11.633-7.29 14.678-8.078-8.483-8.083-12.202-13.859-20.104-6.16-8.43-10.205-4.477-11.903 9.896.174-2.362 3.393-15.457 7.239-13.186 4.445 2.59 8.811 13.598 14.004 19.698 1.386 1.64 3.17 3.287 4.811 4.664 3.066-10.708 14.4-22.019 14.767-27.185 17.726 5 48.095-.13 50.797 50.367-37.024.198-77.233-.614-188.073.498 1.607-16.593 4.324-32.857 14.15-40.187 4.217-3.157 9.106-4.807 14.142-5.857 7.017-1.455 14.87-2.39 21.827-4.273.71.9 12.785 19.078 15.502 26.637 9.777-7.652 13.686-22.013 19.07-24.492 3.747-1.722 6.802 10.744 6.977 13.098-1.467-15.202-6.255-20.177-15.322-4.431-4.467 7.762-5.652 9.866-10.404 14.859-1.908-8.095-15.205-23.359-14.627-27.596.57-4.181 5.682-3.027 9.088-11.92 1.91-4.985 1.487-10.483 9.637-12.109.088 1.05.195 2.088.302 3.137-2.23 1.468-2.798 6.4.767 9.848 3.21 3.677 9.004 5.775 12.83 8.709 4.51 3.48 6.293 7.044 7.729 19.503.031.271 1.233 24.247 1.233 24.247l1.2.6c-.6-25.049-3.002-40.11-7.85-44.331-4.186-3.735-11.497-6.117-15.045-10.287.108-3.128-.508-9.466-.893-11.853-8.108.826-8.338 5.974-10.077 10.468-4.648 12.016-9.12 8.575-9.861 13.553-.07.466.038.816.15 1.435-6.822 1.393-15.336 2.307-22.177 3.558-10.208 1.864-19.84 7.252-24.232 17.507-3.336 7.782-4.303 21.645-4.548 30.188-.01.061-.01.132-.01.194.137.01.283.01.42.01 117.427 1.249 187.604-.52 188.58-.52.344-48.024-25.906-45.923-51.627-52.211zm-19.483-12.502c.015-2.64.095-5.696.286-7.822 1.439 1.026 2.556 4.436-.286 7.822zm-46.699-.388c-2.387-3.124-1.44-6.153-.356-7.2.226 2.111.315 5.068.356 7.2z" fill="#0c4049"/><path d="M50.898 91.922c-1.322-2.19-5.984-6.79-9.28-5.949-2.68.686-5.428 2.919-5.428 6.726-.001 5.897 1.346 8.404 2.25 11.08.771 2.277 3.524 6.45 5.186 8.067 2.045 1.987 5.36 8.415 5.763 9.071.635 1.039 1.69 2.69 3.639 2.752 2.96.093 6.376-1.895 6.59-3.14 1.159-6.749-5.282-22.91-8.72-28.607z" fill="#f0c7b1" stroke="#c27b55" stroke-width="1.35"/><path d="M49.235 106.65c-.127-.503.007-1.346.137-2.16.118-.744.23-1.445.162-1.942-.256-1.857-1.703-5.389-2.648-7.303-1.087-2.202-3.705-4.975-5.91-5.69-.913-.296-1.514.058-1.861.417-.256.263-.312.573-.229.61.084.037.274-.22.55-.462a1.328 1.328 0 011.009-.332c-.183.925-2.824 3.8-1.243 9.353.74 2.6 1.793 4.692 1.982 4.994.029.317.075.626.143.928.892 3.921 6.557 10.386 7.907 11.846.249.27.51.429.575.365.064-.065-.09-.331-.339-.604-1.332-1.45-6.96-7.9-7.82-11.683-1.58-6.932 1.724-7.049 4.048-11.225.358.59.66 1.159.894 1.632.183.372.386.807.595 1.275-.412.657-4.553 5.45-3.5 9.286.39 1.415 3.4 3.238 4.566 3.737.64.276.88.687 1.16 1.162.323.552.69 2.517 1.755 2.969.217.092.412.13.586.13.3 0 .528-.114.696-.251.017.24.016.55.007.837-.01.37.042.673.133.68s.187-.285.199-.654c.014-.454.012-1.015-.07-1.283-.238-.792-.968-1.684-1.74-2.63-.76-.927-1.547-3.228-1.744-4.002zm-8.082-3.477c-2.09-6.156.894-11.47 1.363-12.316.817.709 2.396 1.657 2.983 2.583-2.803 4.856-4.17 1.478-4.346 9.733zm10.142 10.344c-.965-.41-1.288-2.3-1.6-2.832-.283-.482-.576-.98-1.316-1.299a3.463 3.463 0 01-.52-.295c-3.475-5.182.262-7.763.925-8.246.203.66.356 1.266.423 1.751.06.446-.053 1.156-.162 1.84-.135.85-.275 1.728-.13 2.298.216.847 1.026 3.176 1.809 4.135.695.85 1.408 1.727 1.651 2.441-.103.143-.432.482-1.08.207z" fill="#c27b55"/><path d="M148.864 91.922c1.322-2.19 5.984-6.79 9.28-5.949 2.681.686 5.428 2.919 5.428 6.726.002 5.897-1.346 8.404-2.25 11.08-.771 2.277-3.524 6.45-5.186 8.067-2.045 1.987-5.36 8.415-5.763 9.071-.635 1.039-1.69 2.69-3.639 2.752-2.962.093-6.377-1.895-6.592-3.14-1.157-6.749 5.284-22.91 8.722-28.607z" fill="#f0c7b1" stroke="#c27b55" stroke-width="1.35"/><path d="M148.783 110.655c-.77.945-1.5 1.836-1.74 2.628-.081.269-.083.83-.069 1.284.013.368.107.66.2.654s.141-.31.13-.68a8.49 8.49 0 01.01-.837c.167.137.395.252.695.252.174 0 .37-.039.585-.132 1.066-.451 1.433-2.417 1.756-2.968.28-.475.519-.886 1.16-1.162 1.164-.5 4.175-2.323 4.565-3.737 1.053-3.836-3.089-8.63-3.5-9.286.209-.47.411-.903.594-1.275.234-.473.536-1.041.895-1.633 2.323 4.177 5.626 4.294 4.048 11.226-.861 3.784-6.488 10.233-7.82 11.683-.248.273-.403.539-.34.604.065.063.325-.096.576-.366 1.35-1.46 7.015-7.924 7.906-11.845.068-.3.116-.611.144-.928.188-.3 1.241-2.395 1.981-4.994 1.582-5.553-1.06-8.428-1.243-9.353a1.33 1.33 0 011.01.332c.275.242.467.498.549.462.084-.037.026-.347-.229-.61-.348-.36-.95-.713-1.86-.417-2.207.714-4.824 3.488-5.912 5.69-.944 1.913-2.39 5.445-2.647 7.303-.067.497.044 1.198.162 1.941.13.816.264 1.66.137 2.16-.196.773-.981 3.074-1.743 4.004zm5.481-17.215c.587-.926 2.166-1.874 2.982-2.583.469.845 3.452 6.159 1.364 12.316-.176-8.255-1.544-4.877-4.346-9.733zm-6.878 19.87c.244-.715.957-1.592 1.652-2.442.782-.959 1.593-3.288 1.81-4.135.143-.569.004-1.447-.131-2.297-.11-.685-.224-1.395-.162-1.84.066-.486.22-1.092.423-1.752.661.483 4.399 3.064.923 8.246-.18.121-.358.226-.52.296-.74.318-1.032.817-1.315 1.298-.312.533-.635 2.423-1.6 2.833-.646.275-.976-.064-1.08-.207z" fill="#c27b55"/><path d="M100 18.253c-30.258-.05-54.734 24.728-54.78 55.349a56.161 56.161 0 001.757 14.076h.004c.01.05 7.96 32.173 13.837 48.673 5.02 14.096 20.72 26.801 39.183 26.801 18.462 0 34.162-12.705 39.183-26.8 5.876-16.501 13.826-48.625 13.837-48.674h.004a56.156 56.156 0 001.757-14.076C154.736 42.98 130.26 18.204 100 18.252z" fill="#f0c7b1"/><path d="M142.091 38.165c6.704 9.285 9.793 20.86 9.812 33.423.009 5.814-1.7 14.077-1.7 14.077-.011.049-7.67 32.172-13.335 48.673-4.838 14.095-19.072 26.801-36.866 26.801-17.796 0-32.027-12.706-36.865-26.801-5.667-16.5-13.328-48.624-13.338-48.673 0 0-1.706-9.138-1.698-14.077.02-12.56 3.104-24.131 9.806-33.415-7.903 9.597-12.665 21.944-12.686 35.429a56.161 56.161 0 001.758 14.076h.004c.01.05 7.96 32.173 13.837 48.673 5.02 14.096 20.719 26.801 39.182 26.801s34.163-12.705 39.184-26.8c5.876-16.501 13.826-48.625 13.836-48.674h.005a56.156 56.156 0 001.757-14.076c-.022-13.489-4.787-25.84-12.693-35.437z" fill="#e8b9a0"/><path d="M100 18.253c-30.258-.05-54.734 24.728-54.78 55.349a56.161 56.161 0 001.757 14.076h.004c.01.05 7.96 32.173 13.837 48.673 5.02 14.096 20.72 26.801 39.183 26.801 18.462 0 34.162-12.705 39.183-26.8 5.876-16.501 13.826-48.625 13.837-48.674h.004a56.156 56.156 0 001.757-14.076C154.736 42.98 130.26 18.204 100 18.252z" fill="none" stroke="#c27b55" stroke-width="1.35"/><path d="M99.983 144.169c-3.24 0-4.753-2.8-4.753-2.8s4.797.78 9.279-.067c0 0-1.677 2.867-4.526 2.867z" fill="url(#b)" transform="matrix(.9 0 0 .9 9.999 17.472)"/><path d="M99.881 142.302c-7.625 0-11.022-2.347-13.965-5.4h27.931c-2.443 3.125-6.01 5.4-13.966 5.4z" fill="#fff"/><path d="M99.881 142.302c-7.625 0-11.022-2.347-13.965-5.4h27.931c-2.443 3.125-6.01 5.4-13.966 5.4z" fill="none" stroke="#c27b55" stroke-width=".675"/><path d="M76.732 78.383c4.587.679 7.931 3.488 10.773 7.94.004.005.013.004.018.008.007.027.021.053.026.08.255 1.007-.816 1.819-2.155 2.438-4.771.609-9.359 1.489-14.194.87-9.681-1.241-9.855-5.509-10.326-6.629-.252-1.101-.325-1.417-.311-2.473 2.332-1.366 4.043-1.647 5.854-2.005 2.124-.418 6.851-.744 10.315-.229z" fill="url(#c)" transform="matrix(.9 0 0 .9 9.999 17.472)"/><path d="M82.224 93.072a5.4 5.4 0 11-10.8-.002 5.4 5.4 0 0110.8.002z" fill="#4e60a3"/><path d="M73.685 95.597c.787-.065.09-.276.09-.276-.39-.21-1.123-.533-1.123-.829 0-.928 1.272-1.169-.031-1.534-1.354-1.242 1.05-1.217 1.032-1.258-.877-2.139.27-.964.752-1.596 1.789-2.34.498.24 1.47 0 .351-.086-.703-1.378.03-1.197a.809.809 0 01.596.522c.353-.07.907-.614.907-.614.674.204 1.147 1.161.939.982.33-.04.795-.199 1.157-.307 0 0 .063-.215.125-.03.825 2.395 2.956 2.223.503 2.916 0 0-.158 0 .344.398 2.44 1.948-1.892 1.346.406 2.241.094-.093-1.377.869-1.377 1.135 0 .451-.938 1.636-1.751 1.17-.454-.259-.523.54-.79.171-.523-.723-1.568-.031-1.181-.696.57-.468-.589.184-.814.184-.745 0 .975-2.505 3.505-.643.74.541-.778-1.29.562-1.29.134.044.094-.469.094-.614-.697-.136 1.25-.003 1.25-1.136.124.025.459-.315-1.47 0 0 0-.062-.675-.031-.797.099-.394 1.092-.268.813-.675l-.719-1.444c-2.316-.372-.992-.605-2.44-.307-.068.34-3.1 1.786-3.004 2.456.09.632 1.903.845.187 1.964 2.572 4.925-1.899-.112-.031 1.104z" fill="#6777b2"/><path d="M76.824 88.346l.154 3.954 1.653-3.594-1.37 3.711 2.904-2.687-2.687 2.904 3.712-1.37-3.593 1.654 3.953.153-3.953.153 3.593 1.655-3.712-1.37 2.687 2.903-2.905-2.686 1.371 3.71-1.653-3.593-.154 3.953-.154-3.953-1.654 3.593 1.37-3.71-2.904 2.686 2.687-2.903-3.712 1.37 3.593-1.655-3.951-.153 3.95-.153-3.592-1.655 3.712 1.37-2.687-2.903 2.904 2.687-1.37-3.71L76.67 92.3l.154-3.954z" fill="#253984"/><path d="M77.54 89.532l-.485 2.984 1.783-2.44-1.59 2.571 2.584-1.573-2.453 1.768 2.987-.464-2.94.694 2.938.715-2.985-.484 2.441 1.783-2.572-1.588 1.573 2.582-1.768-2.453.465 2.988-.694-2.943-.716 2.937.485-2.983-1.785 2.44 1.591-2.572-2.582 1.573 2.452-1.767-2.987.464 2.942-.694-2.937-.713 2.983.483-2.44-1.784 2.572 1.589-1.573-2.582 1.768 2.452-.464-2.986.694 2.943.713-2.94z" fill="#152975"/><path d="M78.849 93.072a2.025 2.025 0 11-4.05 0 2.025 2.025 0 014.05 0z" opacity=".9"/><path d="M74.697 96.952c-.298.299-.886.194-1.314-.235-.428-.427-.533-1.016-.235-1.315.298-.298.887-.192 1.314.235.429.429.534 1.016.235 1.315z" fill="#fff" opacity=".7"/><path d="M81.15 92.008c-.447.447-1.528.09-2.415-.797s-1.243-1.968-.797-2.415c.446-.446 1.527-.09 2.414.798.887.888 1.244 1.968.797 2.414z" fill="#fff" opacity=".9"/><path d="M59.6 92.697c2.901 10.183 6.727 20.982 15.916 21.302s19.922-6.515 20.061-20.014c.156-15.09-9.426-21.043-18.615-21.364S55.275 77.515 59.6 92.697zm5.186-.444c-.226-.99-.292-1.275-.28-2.226 1.825-1.089 3.637-1.392 5.266-1.714 1.911-.376 6.168-.76 9.286-.296 4.128.611 7.138 3.14 9.695 7.146.004.004.012.003.017.007.006.024.018.048.023.072.23.906-.734 1.637-1.94 2.194-4.293.548-8.423 1.34-12.774.783-8.713-1.117-8.87-4.958-9.293-5.966z" fill="#f0c7b1"/><path d="M74.225 95.171c9.256 1.401 17.847-3.01 19.186-9.859 1.34-6.849-5.072-13.537-14.329-14.94-9.258-1.399-17.845 3.012-19.185 9.862-1.34 6.848 5.07 13.532 14.328 14.937zM60.563 80.617c2.125-1.141 4.04-1.547 5.851-1.905 2.123-.418 6.853-.845 10.317-.329 4.587.679 7.931 3.488 10.773 7.94.004.005.013.004.018.008.007.027.021.053.026.08.255 1.007-.816 1.819-2.155 2.438-4.771.609-9.359 1.489-14.194.87-9.681-1.241-9.855-5.509-10.326-6.629-.251-1.101-.323-1.418-.31-2.473z" fill="url(#d)" transform="matrix(.9 0 0 .9 9.999 17.472)"/><path d="M60.875 83.09c-.252-1.101-.325-1.417-.311-2.473 2.092-1.175 4.04-1.547 5.851-1.905 2.123-.418 6.853-.845 10.317-.329 4.587.679 7.931 3.488 10.773 7.94.004.005.013.004.018.008.007.027.021.053.026.08.255 1.007-.816 1.819-2.155 2.438-4.771.609-9.359 1.489-14.194.87-9.681-1.241-9.855-5.509-10.325-6.629z" fill="url(#e)" transform="matrix(.9 0 0 .9 9.999 17.472)"/><path d="M78.693 85.645c2.965.485 5.855 1.849 8.532 3.55.573.364 1.23.78 2.27 1.307-.746-.17-1.436-.556-2.079-.91.662.628 1.28 1.376 1.784 2.1-2.27-2.843-6.568-4.984-10.224-5.714-3.512-.7-9.89-.237-14.626 1.838 4.336-2.44 10.662-2.772 14.343-2.17z" fill="#c27b55"/><path d="M88.756 95.121c-2.562-3.906-5.574-6.373-9.703-6.972-4.35-.634-10.144-.199-13.53 1.659-.278.152-1.447 1.124-1.261.105.786-1.05 3.89-2.27 5.393-2.635 16.87-4.089 20.068 9.263 19.101 7.843zM64.58 92.03c-.644 1.857.775 5.989 9.13 6.753 5.936.542 14.191-1.575 13.171-1.452-4.3.53-8.437 1.304-12.797.755-9.883-1.242-8.764-5.892-9.504-6.056z"/><path d="M122.867 78.383c-4.586.679-7.931 3.488-10.773 7.94-.004.005-.012.004-.018.008-.006.027-.02.053-.025.08-.256 1.007.815 1.819 2.154 2.438 4.771.609 9.359 1.489 14.194.87 9.681-1.241 9.855-5.509 10.325-6.629.253-1.101.325-1.417.312-2.473-2.331-1.366-4.043-1.647-5.854-2.005-2.123-.418-6.85-.744-10.315-.229z" fill="url(#f)" transform="matrix(.9 0 0 .9 9.999 17.472)"/><path d="M128.574 93.071c0 2.985-2.416 5.4-5.4 5.4s-5.4-2.415-5.4-5.4 2.415-5.4 5.4-5.4 5.4 2.416 5.4 5.4z" fill="#4e60a3"/><path d="M120.031 95.598c.791-.069.095-.275.095-.275-.391-.21-1.129-.533-1.129-.833 0-.928 1.276-1.166-.02-1.535-1.362-1.24 1.043-1.213 1.023-1.255-.876-2.141.274-.965.76-1.598 1.781-2.336.495.243 1.465 0 .349-.084-.706-1.376.032-1.197a.8.8 0 01.59.522c.358-.068.907-.612.907-.612.675.2 1.15 1.16.94.981.337-.042.801-.2 1.16-.306 0 0 .062-.216.126-.031.823 2.394 2.953 2.225.507 2.916 0 0-.159 0 .337.395 2.437 1.951-1.888 1.344.412 2.24.094-.09-1.382.871-1.382 1.14 0 .448-.939 1.635-1.75 1.166-.454-.259-.528.543-.792.173-.516-.722-1.57-.031-1.181-.695.57-.47-.59.184-.812.184-.749 0 .97-2.505 3.502-.643.738.538-.78-1.293.57-1.293.126.043.094-.469.094-.612-.706-.137 1.245-.005 1.245-1.14.127.027.464-.31-1.466 0 0 0-.063-.674-.032-.796.095-.395 1.086-.269.812-.675l-.717-1.444c-2.32-.37-.992-.601-2.447-.306-.063.343-3.1 1.787-3.006 2.457.094.633 1.908.844.19 1.962 2.572 4.933-1.9-.109-.033 1.11z" fill="#6777b2"/><path d="M123.174 88.346l.158 3.956 1.645-3.597-1.37 3.713 2.91-2.69-2.689 2.907 3.713-1.37-3.597 1.655 3.956.153-3.956.153 3.597 1.656-3.713-1.37 2.69 2.905-2.911-2.689 1.37 3.713-1.645-3.597-.158 3.952-.159-3.955-1.656 3.596 1.371-3.712-2.9 2.689 2.689-2.906-3.713 1.37 3.597-1.656-3.956-.153 3.956-.153-3.597-1.656 3.713 1.371-2.69-2.906 2.901 2.69-1.37-3.713 1.655 3.596.159-3.952z" fill="#253984"/><path d="M123.891 89.532l-.485 2.985 1.782-2.442-1.593 2.573 2.584-1.577-2.447 1.773 2.984-.465-2.943.691 2.943.718-2.984-.485 2.436 1.782-2.573-1.588 1.571 2.584-1.76-2.453.464 2.985-.696-2.94-.717 2.937.485-2.984-1.782 2.441 1.593-2.573-2.584 1.577 2.447-1.772-2.985.464 2.943-.69-2.943-.718 2.985.485-2.436-1.782 2.573 1.588-1.572-2.584 1.762 2.452-.465-2.984.696 2.943.717-2.94z" fill="#152975"/><path d="M125.199 93.071a2.026 2.026 0 11-4.052-.001 2.026 2.026 0 014.052.001z" opacity=".9"/><path d="M121.044 96.953c-.296.295-.886.195-1.308-.238-.432-.427-.538-1.012-.232-1.313.295-.295.885-.19 1.307.238.432.426.539 1.012.233 1.313z" fill="#fff" opacity=".7"/><path d="M127.498 92.006c-.442.448-1.529.094-2.415-.797-.886-.885-1.245-1.967-.791-2.41.442-.448 1.519-.095 2.404.796.897.887 1.245 1.968.802 2.41z" fill="#fff" opacity=".9"/><path d="M122.676 72.621c-9.19.32-18.771 6.273-18.616 21.364.138 13.5 10.87 20.335 20.06 20.014 9.19-.32 14.569-15.59 15.917-21.302 3.627-15.364-8.172-20.396-17.36-20.076zm2.882 25.598c-4.352.557-8.48-.235-12.775-.783-1.205-.556-2.169-1.287-1.938-2.194.005-.024.018-.048.022-.072.006-.004.013-.003.016-.007 2.56-4.007 5.57-6.535 9.696-7.146 3.119-.465 7.376-.08 9.286.296 1.63.321 3.442.625 5.266 1.714.013.95-.053 1.235-.28 2.226-.423 1.008-.58 4.85-9.293 5.966z" fill="#f0c7b1"/><path d="M139.703 80.234c-1.34-6.85-9.928-11.261-19.186-9.862-9.257 1.403-15.669 8.091-14.328 14.94 1.339 6.849 9.93 11.26 19.186 9.859 9.258-1.405 15.668-8.089 14.328-14.937zm-.978 2.856c-.47 1.121-.645 5.388-10.325 6.629-4.835.619-9.423-.261-14.194-.87-1.339-.618-2.41-1.43-2.154-2.438.006-.027.02-.053.025-.08.006-.004.014-.003.018-.008 2.843-4.452 6.188-7.261 10.773-7.94 3.465-.516 8.195-.089 10.318.329 1.811.357 3.727.764 5.851 1.905.013 1.055-.059 1.372-.312 2.473z" fill="url(#g)" transform="matrix(.9 0 0 .9 9.999 17.472)"/><path d="M138.725 83.09c.253-1.101.325-1.417.312-2.473-2.092-1.175-4.04-1.547-5.851-1.905-2.123-.418-6.854-.845-10.318-.329-4.586.679-7.931 3.488-10.773 7.94-.004.005-.012.004-.018.008-.006.027-.02.053-.025.08-.256 1.007.815 1.819 2.154 2.438 4.771.609 9.359 1.489 14.194.87 9.68-1.241 9.855-5.509 10.325-6.629z" fill="url(#h)" transform="matrix(.9 0 0 .9 9.999 17.472)"/><path d="M120.945 85.645c-2.966.485-5.856 1.849-8.532 3.55a24.87 24.87 0 01-2.27 1.307c.746-.17 1.435-.556 2.079-.91a13.861 13.861 0 00-1.784 2.1c2.269-2.843 6.567-4.984 10.223-5.714 3.512-.7 9.89-.237 14.627 1.838-4.337-2.44-10.663-2.772-14.343-2.17z" fill="#c27b55"/><path d="M129.981 87.279c1.505.364 4.608 1.585 5.395 2.635.185 1.019-.985.047-1.262-.105-3.387-1.858-9.18-2.293-13.53-1.659-4.129.599-7.142 3.066-9.702 6.972-.967 1.419 2.23-11.933 19.1-7.843zm-4.427 10.806c-4.36.55-8.495-.225-12.797-.755-1.02-.123 7.234 1.994 13.17 1.452 8.356-.764 9.775-4.896 9.13-6.753-.74.164.38 4.814-9.503 6.056z"/><path d="M141 113.974c.035 22.622-18.292 40.994-40.938 41.025-22.642.037-41.028-18.273-41.063-40.9-.035-22.62 18.292-41.064 40.937-41.1 22.643-.035 41.031 18.35 41.064 40.975z" fill="url(#i)" transform="matrix(.9 0 0 .9 9.999 17.472)"/><path d="M137.5 53.999c0 20.711-16.789 37.5-37.499 37.5-20.711 0-37.501-16.789-37.501-37.5s16.79-37.5 37.501-37.5c20.71 0 37.499 16.789 37.499 37.5z" fill="url(#j)" transform="matrix(.9 0 0 .9 9.999 17.472)"/><path d="M57.238 83.955c6.728-8.445 18.304-7.04 27.79-5.682 2.413.345 4.897.604 7.263 1.202 1.696.427 3.029 2.36 1.666 3.92-.637.743-2.028.605-2.886.587-11.359-.23-24.198-6.762-33.833-.027zm85.58-.342c-1.947-1.303-4.008-2.223-6.339-2.6-8.547-1.386-24.827 4.311-29.106 3.105-2.621-.74-2.091-3.365-.932-4.012.698-.39.891-.38 7.118-1.45 10.581-1.819 22.43-3.264 29.26 4.957z" fill="#a46c47"/><path d="M97.147 97.144s-1.26 10.005-1.824 11.953c-1.24 4.276-5.55 10.275-4.715 12.986 1.673 5.42 6.784 4.043 9.472 4.024 2.487-.02 7.265 1.396 8.246-2.133.316-1.14-.397-4.02-.397-4.02s-2.38 2.801-7.988 2.49c-1.6-.089-4.204-1.886-4.233-4.42-.039-3.436 1.621-6.332 1.984-9.742.274-2.59-.545-11.138-.545-11.138z" fill="#e1ac8f"/><path d="M104.673 124.544c.968 0 1.23.294 1.23.656 0 .364-.302.924-1.23.657-1.02-.29-2.801-.157-2.801-.157s1.832-1.156 2.801-1.156zm-9.244 0c-.97.001-1.23.295-1.23.66 0 .363.291.885 1.23.656 1.035-.254 2.8-.157 2.8-.157s-1.831-1.155-2.8-1.159zm12.499-4.59s1.34 1.74 1.062 3.578c-.271 1.784-2.98 2.575-2.98 2.575s1.881-1.365 2.109-3.02c.106-.777-.191-3.133-.191-3.133zm-16.545-1.787s-.977 2.433-.695 3.917c.514 2.678 3.334 3.747 3.334 3.747s-1.76-1.835-2.385-3.458c-.685-1.773-.254-4.206-.254-4.206z" fill="#c27b55"/><path d="M104.626 121.252c.938-.8 1.033-1.256.839-1.556-.194-.3-.757-.49-1.543.475-.867 1.062-2.75 1.849-2.75 1.849s2.515.03 3.454-.768z" fill="#ffe4d6"/><path d="M75.177 161.706c-5.23-3.348-11.862-9.999-14.31-13.293-6.894-8.81-4.194-16.155-7.677-31.635-1.782-6.75-4.734-16.65-5.094-19.125.828.126 5.202.72 5.94.837 1.08 8.451 10.61 14.472 12.24 31.851 1.43 10.926 6.83 16.218 15.669 21.672 3.744 2.322 10.962 6.102 12.672 2.016 1.386-3.303-.99-10.008 4.77-11.097 1.197-.216 3.762.252 4.743 2.475 1.575 3.564-.82 10.404 4.284 10.404 5.292 0 14.418-6.795 16.965-9.144 9.999-8.208 6.732-18.153 11.322-29.043 5.3-11.736 6.948-10.224 9.243-19.143.62-.063 5.31-.747 5.94-.828-3.753 15.282-6.732 22.69-7.128 32.364-.711 14.373-5.031 18.9-14.733 27.765-5.427 4.671-12.16 9.288-29.133 9.972-4.878.324-18.801-1.503-25.713-6.048z" fill="#a46c47"/><path d="M95.84 145.551c.559-1.305 1.585-2.33 3.538-2.7 1.224-.216 3.852.27 4.842 2.53.036.071.054.152.08.224-1.52 1.341-3.851 9.027-8.46-.054zm41.059-.279c-7.263 12.906-20.304 20.025-34.596 20.07-1.125.063-3.186.09-4.6 0-14.3-.045-27.341-7.164-34.604-20.07-8.307-12.456-6.651-27.98-13.42-40.905 1.072 3.888 2.43 8.631 3.43 12.438 3.483 15.471.783 22.842 7.695 31.671 2.529 3.402 9.144 9.99 14.328 13.311 6.579 4.32 19.314 6.183 24.867 6.102 5.553.081 18.297-1.773 24.867-6.102 5.184-3.32 11.799-9.909 14.328-13.31 6.912-8.83 4.212-16.2 7.695-31.672.999-3.807 2.358-8.55 3.429-12.438-6.768 12.924-5.112 28.45-13.42 40.905z" fill="#955932"/><path d="M145.88 98.41c-2.294 8.972-3.932 7.424-9.251 19.196-4.617 10.944-1.314 20.817-11.304 29.016-2.502 2.304-13.122 10.27-18.108 8.973-3.447-1.278-1.53-6.885-2.997-10.206-.99-2.259-3.618-2.745-4.842-2.529-5.814 1.098-3.465 7.893-4.833 11.151-1.683 4.005-8.874.216-12.546-2.06-9.072-5.599-14.238-11.026-15.624-21.61-1.638-17.469-11.214-23.454-12.25-31.923-.09-.018-6.03-.828-6.128-.864.279 2.26 3.285 12.33 5.112 19.251 3.483 15.471.783 22.842 7.695 31.671 2.529 3.402 9.144 9.99 14.328 13.311 6.966 4.581 20.844 6.4 25.776 6.066 16.893-.684 23.706-5.283 29.187-9.999 9.864-9.018 14.058-13.509 14.76-27.828.396-9.702 3.357-16.983 7.155-32.472-.045 0-5.913.855-6.13.855zm-2.537 31.445c-1.197 14.445-4.131 17.577-13.914 26.496-6.957 6.003-14.301 9.432-29.466 10.512-6.768-.513-18.801-2.718-24.48-6.705-5.904-3.996-11.988-10.746-13.563-12.888-6.498-8.343-3.384-16.02-7.524-30.762-2.71-8.514-4.06-11.25-6.246-18.702.9.126 3.033.558 5.904.837 1.215 9.603 9.468 14.373 10.953 31.806.315 2.088.693 6.174 3.627 11.043 1.494 2.52 3.438 4.77 5.13 6.165 5.03 4.644 21.762 15.651 21.996 3.7.036-3.259-.414-7.732 4.248-8.416 7.857 1.116 1.134 11.745 6.984 13.6 5.598 1.574 24.408-8.002 27.369-22.483 1.53-5.427-.783-9.297 7.65-25.209 2.232-4.05 3.32-5.913 3.942-10.206 1.107-.108 5.157-.63 5.904-.846-3.33 11.196-7.893 21.474-8.514 32.058z" fill="#763810"/><path d="M82.503 146.343c-7.083-10.728 1.476-19.71 9.45-19.71 2.943 0 5.085 1.467 8.082 1.485 2.799 0 5.409-1.422 8.199-1.34 5.706 0 13.176 4.751 11.78 12.068-.45 2.295-1.421 4.392-2.483 6.885-2.61-12.41-8.388-9.666-19.755-10.215-5.23-.252-9.954-.486-13.203 3.996-1.296 2.007-1.99 5.274-2.07 6.831" fill="#a46c47"/><path d="M113.175 127.857c6.11 4.968 6.435 9.594 4.86 13.86-.486-6.29-6.723-11.97-18.234-9.027-11.52-3.618-17.505 2.862-18.072 9.792-.846-5.328.108-11.223 6.822-15.309-6.768 2.097-12.348 10.053-5.958 19.458 0-1.269.657-4.887 2.06-7.065 3.583-4.94 8.983-4.095 14.94-3.87 8.803.558 15.256-2.493 17.875 10.152.009.072.027.135.045.198.072-.162.144-.342.225-.53.036-.09.08-.18.117-.28.873-2.043 1.818-4.104 2.259-6.354 1.017-5.427-2.71-9.252-6.94-11.025z" fill="#955932"/><path d="M108.234 126.696c-2.8-.099-5.472 1.368-8.307 1.332-2.196-.045-4.33-.963-6.084-1.305-8.38-1.629-19.314 8.073-11.26 19.908 0-1.269.658-4.887 2.062-7.065 3.582-4.94 8.982-4.095 14.94-3.87 8.802.558 15.255-2.493 17.874 10.152.009.072.027.135.045.198.072-.162.144-.342.225-.53.036-.09.08-.18.117-.28.873-2.043 1.818-4.104 2.259-6.354 1.43-7.542-6.336-12.186-11.871-12.186zm9.459 18.504c-1.386-13.239-10.944-10.34-18.054-10.719-5.292-.198-9.396-.765-13.455 2.007-2.997 2.466-3.834 5.58-3.834 9.55-6.588-11.323 3.816-19.927 11.295-18.514 3.582.783 5.094 2.025 9.756.864 1.089-.27 4.248-1.143 5.58-.81 4.653.378 9.26 3.681 10.43 7.272 1.153 3.393-.935 8.091-1.718 10.35z" fill="#763810"/><path d="M51.198 98.754c-2.698-2.252-6.074-8.045-7.58-16.166-.32-1.664-.55-3.375-.792-5.187-1.018-7.601-3.2-16.46-1.69-25.535 1.811-11.104 10.143-23.124 20.732-29.914 16.372-10.594 57.754-15.33 66.378-1.383 5.003-.183 10.402 1.124 14.13 4.024 12.337 9.256 17.108 40.69 13.69 56.303-2.276 10.662-2.873 13.459-7.438 17.64 1.63-48.892-.891-35.7-2.976-48.829-2.443-1.79-3.354-1.05-7.118-3.187-7.486-5.528-7.123-7.742-10.515-11.609-3.02 3.573-7.362 6.717-10.716 8.17.85-1.393 1.574-2.954 2.054-3.958l-.401-.336c-2.817 2.036-8.506 4.93-12.003 5.24 1.878-2.308 1.659-2.017 2.41-3.424-2.805 1.724-5.785 2.895-9.544 3.225 3.541-1.75 5.129-2.947 7.876-5.236l-.251-.466c-19.072 5.794-23.597 7.106-37.58 9.586-11.71 1.464-7.423.227-11.671.227-6.834 0-7.918 20.51-7.623 27.348.761 19.116-.218 15.394.628 23.467z" fill="#a46c47"/><path d="M156.065 80.896c-2.275 10.662-2.872 13.459-7.437 17.64 1.63-48.892-.891-35.7-2.976-48.829-2.443-1.79-3.354-1.05-7.118-3.187-7.486-5.528-7.123-7.742-10.515-11.609-3.02 3.573-7.362 6.717-10.716 8.17.85-1.393 1.574-2.954 2.054-3.958l-.401-.336c-2.817 2.036-8.506 4.93-12.003 5.24 1.878-2.308 1.659-2.017 2.41-3.424-2.805 1.724-5.785 2.895-9.544 3.225 3.541-1.75 5.129-2.947 7.876-5.236l-.251-.466c-19.072 5.794-23.597 7.106-37.58 9.586-11.71 1.464-7.423.227-11.671.227-6.834 0-7.918 20.51-7.623 27.348.761 19.117-.218 15.394.628 23.468-2.698-2.252-6.074-8.045-7.58-16.166-.32-1.664-.55-3.375-.792-5.187-1.018-7.601-3.2-16.46-1.69-25.535 1.43-8.772 12.354-21.672 19.82-28.557-22.95 21.375-16.2 45.227-12.374 64.35-1.126-16.876-4.383-44.088 10.917-44.988 20.7 0 43.982-2.938 58.382-17.338-.9 6.3-1.682 7.438-6.182 11.938 3.6-2.7 8.1-4.5 9.9-9-.9 3.6-.9 6.3-3.6 9 2.7-1.8 5.4-4.5 8.1-7.2 0 2.7-1.8 5.4-2.7 8.1 1.8-4.5 7.2-7.2 8.1-11.7-2.7 11.7 11.132 17.987 15.407 20.462 5.85 8.1 6.075 25.2 4.725 39.375 4.95-16.2 2.7-43.875-11.925-63 15.975 11.7 19.333 44.01 16.36 57.587zM64.331 35.46c10.986-.323 19.048-2.104 30.825-8.775-11.328 4.964-18.497 7.333-30.825 8.775zm29.925-3.825c5.814-2.413 9.86-7.648 16.425-9.225-6.05 2.1-10.258 7.366-16.425 9.225zM59.381 35.01c4.166-7.492 13.068-13.7 24.3-14.625-9.14 1.699-18.929 6.946-24.3 14.625z" fill="#955932"/><path d="M87.956 17.472c11.776-5.034 22.496-4.52 33.75 1.787-11.81-5.045-20.839-4.08-20.839-4.08-2.149.17-5.585.086-12.911 2.293zm46.35 7.187c3.725 1.434 5.28 3.614 7.545 6.76 3.316 5.358 4.244 7.68 6.176 13.04-1.876-7.699-6.085-17.724-13.721-19.8zm-21.15-.225c-6.404 5.402-11.047 8.313-23.85 12.6 10.118-2.403 16.566-5.237 23.85-12.6zm20.7 5.625c1.86 6.332 5.288 9.861 10.575 13.05-4.914-3.697-8.127-7.127-10.575-13.05zm-71.1-3.375l-1.158.856c-8.23 5.832-14.665 16.974-14.817 31.094 1.796-14.048 7.362-23.933 15.975-31.95zm4.275 4.05c6.981-3.65 10.205-3.679 21.825-5.625-10.029.699-14.99 1.177-21.825 5.625zm18.943 3.806c-4.108 2.06-13.75 4.37-13.75 4.266l-9.242 2.053c2.27-.287 6.164-.743 9.376-1.432 0 .121 7.916-1.787 10.241-2.987 2.553-1.205 1.688-.732 4.233-2.331l-.858.43z" fill="#b38160"/><path d="M142.542 24.38c-3.806-2.96-9.29-4.267-14.149-4.086-4.15-6.709-17.236-8.638-25.173-8.721-11.974-.124-30.892 3.287-41.499 10.152-9.871 6.328-18.92 18.257-20.853 30.096-1.156 6.949-.16 14.149 1.017 21.042.576 3.33.873 6.687 1.467 9.774 1.707 9.204 5.666 14.963 8.181 16.713-.958-8.87.087-4.499-.693-24.075-.363-8.398 1.175-27.643 7.641-27.054 4.395.31.913 1.072 11.43-.244 13.812-2.45 18.33-3.737 37.611-9.593-3.021 2.518-4.593 3.66-8.64 5.598-.009-.01-.009 0-.009 0a7.442 7.442 0 01-.387.18c3.347-.022 7.511-1.175 10.17-2.808-.367.685-1.47 1.932-2.286 2.97 3.46 0 9.666-3.095 12.744-5.32-.432.9-1.443 3.116-2.53 4.69 1.027-.513 3.487-1.182 8.397-5.337a26.87 26.87 0 003.042-3.033c3.014 3.436 2.833 5.864 10.377 11.43 3.742 2.124 4.754 1.462 7.002 3.105 1.985 13.003 4.62-.716 2.934 49.302 5.04-4.464 5.648-7.224 7.992-18.207 3.338-15.24-1.205-47.135-13.786-56.574zm12.311 56.385c-1.994 11.057-2.162 12.924-6.192 17.298.733-9.72 1.377-18.413 1.187-28.206-.4-14.455-2.322-11.744-3.69-20.448-2.59-1.82-3.846-1.49-6.228-2.565-.414-.153-.756-.414-1.143-.612-7.553-5.242-7.558-7.744-10.647-11.043.874-1.003 1.632-2.152 1.881-2.646-1.358 2.037-7.18 7.415-12.699 10.467a25.481 25.481 0 002.196-4.302c1.562-1.091 2.628-2.123 3.528-3.015-3.077 2.556-11.002 7.164-15.975 8.163.157-.161 1.688-1.644 2.264-2.767 1.22-.488 4.515-2.501 5.674-3.783-5.674 3.783-12.127 6.048-14.381 6.423 2.758-1.034 6.336-4.258 8.172-5.724 1.774-1.417 2.118-1.986 3.96-3.852-1.21.844-3.097 2.693-5.451 3.687-1.393.588-39.501 11.248-46.129 9.517-1.33-.333-2.834-.737-4.158-.351-10.62 4.568-6.715 33.87-6.57 42.867.123 7.58.666 8.9.666 8.9-6.976-6.623-7.28-21.198-8.01-26.261-.925-6.71-1.73-13.834-.495-20.493 2.016-11.376 10.72-22.867 20.034-28.854 13.922-9.036 55.435-16.68 65.736-2.547 25.574 0 29.162 42.098 26.47 60.147z" fill="#763810"/><path d="M92.52 97.78c-3.34 6.713-12.708 7.334-16.002 7.334H65.61c-5.175 0-9.774-7.19-9.774-12.86v-5.545c0-.207.099-.414.26-.63l36.424 11.7zm16.812-11.323c-1.863 1.287-3.051 3.015-3.051 5.328v.45c0 2.196.45 4.023 1.206 5.535 3.339 6.714 12.708 7.335 16.002 7.335h10.908c3.68 0 7.065-3.645 8.712-7.794l-33.777-10.854z" fill="#fff" opacity=".2"/><path d="M92.52 97.78L56.088 86.07c.89-1.188 3.96-2.43 5.535-2.619a93.867 93.867 0 0110.746-.62c7.974 0 21.348 1.16 21.348 8.963v.45c0 2.196-.45 4.023-1.197 5.535zm51.642-5.536V86.7c0-.207-.1-.414-.261-.63-.891-1.188-3.96-2.43-5.535-2.619a93.867 93.867 0 00-10.746-.62c-5.607 0-13.87.575-18.297 3.626L143.1 97.311c.675-1.674 1.062-3.429 1.062-5.067z" fill="#fff" opacity=".4"/><path d="M144.756 88.284V86.7c0-1.89-4.41-3.59-6.31-3.825-8.477-1.008-28.367-1.818-32.13 6.084-2.501-.828-5.291-1.152-6.317-1.16-1.026.008-3.816.332-6.318 1.16-3.753-7.893-23.643-7.092-32.13-6.084-1.9.225-6.31 1.926-6.31 3.825v1.584H50.95v2.124h4.293v1.836c0 5.67 4.635 13.446 10.359 13.446H76.51c7.497 0 17.784-2.817 17.784-13.446v-.45c0-.684-.09-1.314-.261-1.908 3.114-.963 4.995-1.16 5.958-1.179.963.01 2.844.216 5.958 1.18a6.836 6.836 0 00-.261 1.907v.45c0 10.63 10.296 13.446 17.784 13.446h10.908c5.724 0 10.359-7.776 10.359-13.446v-1.836h4.293v-2.124h-4.275zm-51.183 3.96c0 11.8-13.05 12.717-17.055 12.717H65.61c-5.094 0-9.63-7.11-9.63-12.717V86.7c0-1.179 3.68-2.862 5.66-3.096a93.478 93.478 0 0110.729-.62c7.92 0 21.195 1.142 21.195 8.81v.45zm50.445 0c0 5.607-4.536 12.717-9.63 12.717H123.48c-4.005 0-17.055-.918-17.055-12.717v-.45c0-7.668 13.284-8.81 21.195-8.81 4.779 0 8.775.386 10.728.62 1.98.234 5.67 1.917 5.67 3.096v5.544z" fill="#26120b"/></svg>